<svg id="Layer_1" data-name="Layer 1" xmlns="http://www.w3.org/2000/svg" xmlns:xlink="http://www.w3.org/1999/xlink" viewBox="0 0 506.05 89.58"><defs><linearGradient id="linear-gradient" x1="35.43" y1="132.29" x2="121.87" y2="132.29" gradientUnits="userSpaceOnUse"><stop offset="0.01" stop-color="#503593"/><stop offset="0.15" stop-color="#8f4e9d"/><stop offset="0.29" stop-color="#ec1885"/><stop offset="0.41" stop-color="#ec178d"/><stop offset="0.52" stop-color="#eb0b8c"/><stop offset="0.64" stop-color="#ec236f"/><stop offset="0.8" stop-color="#ed3334"/><stop offset="1" stop-color="#fcc10f"/></linearGradient><linearGradient id="linear-gradient-2" x1="33.93" y1="132.29" x2="123.37" y2="132.29" xlink:href="#linear-gradient"/></defs><title>gradSlogan</title><path d="M153.2,130.59V105.07h4.64l9.76,14.79h-2.13l9.72-14.79h4.65v25.52h-6.41V115.76l1,.25-5.8,8.82h-4.25L158.63,116l1-.25v14.83Z" transform="translate(-33.93 -87.51)"/><path d="M191.28,131a8,8,0,0,1-4.37-1.19,8.38,8.38,0,0,1-3-3.25,10.68,10.68,0,0,1,0-9.44,8.35,8.35,0,0,1,3-3.25,7.93,7.93,0,0,1,4.32-1.19,7.7,7.7,0,0,1,3.06.59,6,6,0,0,1,2.25,1.66,4.71,4.71,0,0,1,1.06,2.46v8.86a5,5,0,0,1-1.1,2.48,6,6,0,0,1-2.25,1.68A7.53,7.53,0,0,1,191.28,131Zm1.34-5.58a3.19,3.19,0,0,0,2.48-1,3.66,3.66,0,0,0,.94-2.59,3.8,3.8,0,0,0-.44-1.82,3.21,3.21,0,0,0-1.18-1.27,3.25,3.25,0,0,0-1.77-.47,3.33,3.33,0,0,0-3,1.74,3.69,3.69,0,0,0-.45,1.82,3.87,3.87,0,0,0,.43,1.86,3.17,3.17,0,0,0,1.22,1.27A3.35,3.35,0,0,0,192.62,125.37Zm3.2,5.22v-4.75l.9-4.25-.9-4.28V113H202v17.6Z" transform="translate(-33.93 -87.51)"/><path d="M205.61,130.59V113h6.3v17.6Zm11.41,0v-10a2.39,2.39,0,0,0-2.52-2.56,3,3,0,0,0-1.35.31,2.08,2.08,0,0,0-.91.9,2.83,2.83,0,0,0-.33,1.39l-2.41-1.16a7.09,7.09,0,0,1,.92-3.67,6.08,6.08,0,0,1,2.57-2.37,8.09,8.09,0,0,1,3.71-.83,6.51,6.51,0,0,1,5.76,3.24,6.39,6.39,0,0,1,.86,3.31v11.41Z" transform="translate(-33.93 -87.51)"/><path d="M234.74,131a9.6,9.6,0,0,1-4.45-1,7.46,7.46,0,0,1-4.12-6.82V113h6.3v10.19a2.67,2.67,0,0,0,.27,1.24,2,2,0,0,0,.79.83,2.32,2.32,0,0,0,1.17.3,2.1,2.1,0,0,0,1.62-.65,2.38,2.38,0,0,0,.61-1.72V113h6.3v10.19a7.6,7.6,0,0,1-1.08,4.06,7.41,7.41,0,0,1-3,2.76A9.55,9.55,0,0,1,234.74,131Z" transform="translate(-33.93 -87.51)"/><path d="M244.82,118.21V113h15v5.22Zm3.74,12.38V111.87a8.34,8.34,0,0,1,1-4,7.09,7.09,0,0,1,2.81-2.86,8.7,8.7,0,0,1,4.39-1,8.81,8.81,0,0,1,3.37.6,6.76,6.76,0,0,1,2.46,1.67l-3.88,3.92a1.66,1.66,0,0,0-.74-.46,3,3,0,0,0-1-.15,2.13,2.13,0,0,0-1.54.56,2,2,0,0,0-.58,1.53v19Z" transform="translate(-33.93 -87.51)"/><path d="M269.37,131a8,8,0,0,1-4.38-1.19,8.36,8.36,0,0,1-3-3.25,10.68,10.68,0,0,1,0-9.44,8.33,8.33,0,0,1,3-3.25,7.93,7.93,0,0,1,4.32-1.19,7.7,7.7,0,0,1,3.06.59,6,6,0,0,1,2.25,1.66,4.71,4.71,0,0,1,1.06,2.46v8.86a5.07,5.07,0,0,1-1.09,2.48,6,6,0,0,1-2.25,1.68A7.56,7.56,0,0,1,269.37,131Zm1.33-5.58a3.19,3.19,0,0,0,2.48-1,3.62,3.62,0,0,0,.94-2.59,3.79,3.79,0,0,0-.43-1.82,3.31,3.31,0,0,0-1.19-1.27,3.2,3.2,0,0,0-1.76-.47,3.32,3.32,0,0,0-1.79.47,3.38,3.38,0,0,0-1.22,1.27,3.69,3.69,0,0,0-.45,1.82,3.87,3.87,0,0,0,.43,1.86,3.2,3.2,0,0,0,1.23,1.27A3.29,3.29,0,0,0,270.7,125.37Zm3.2,5.22v-4.75l.9-4.25-.9-4.28V113h6.2v17.6Z" transform="translate(-33.93 -87.51)"/><path d="M292.44,131a10.52,10.52,0,0,1-5.05-1.2,9.18,9.18,0,0,1-3.55-3.3,8.78,8.78,0,0,1-1.3-4.71,8.68,8.68,0,0,1,1.32-4.75,9.28,9.28,0,0,1,3.56-3.3,10.67,10.67,0,0,1,5.1-1.2,10,10,0,0,1,3.76.68,9.28,9.28,0,0,1,3.08,2.05l-4,4a4,4,0,0,0-1.28-.81,4.44,4.44,0,0,0-1.6-.27,3.67,3.67,0,0,0-1.82.45,3.59,3.59,0,0,0-1.3,1.24,4,4,0,0,0,0,3.78,3.52,3.52,0,0,0,1.3,1.3,3.58,3.58,0,0,0,1.82.47,4.09,4.09,0,0,0,1.72-.33,3.56,3.56,0,0,0,1.26-.93l4,4a10.79,10.79,0,0,1-3.19,2.18A9.71,9.71,0,0,1,292.44,131Z" transform="translate(-33.93 -87.51)"/><path d="M300,118.21V113h14v5.22Zm3.86,12.38V105.72h6.3v24.87Z" transform="translate(-33.93 -87.51)"/><path d="M324.34,131a9.63,9.63,0,0,1-4.45-1,7.46,7.46,0,0,1-4.12-6.82V113h6.3v10.19a2.67,2.67,0,0,0,.27,1.24,2.1,2.1,0,0,0,.79.83,2.32,2.32,0,0,0,1.17.3,2.1,2.1,0,0,0,1.62-.65,2.39,2.39,0,0,0,.62-1.72V113h6.29v10.19a7.52,7.52,0,0,1-1.08,4.06,7.35,7.35,0,0,1-3,2.76A9.52,9.52,0,0,1,324.34,131Z" transform="translate(-33.93 -87.51)"/><path d="M336,130.59V113h6.3v17.6Zm6.3-9.57-2.77-2.38a10.17,10.17,0,0,1,2.74-4.5A7.5,7.5,0,0,1,349,113a3.9,3.9,0,0,1,1.56,1l-3.63,4.9a2.22,2.22,0,0,0-.83-.56,3.33,3.33,0,0,0-1.19-.2,2.37,2.37,0,0,0-1.87.76A3.08,3.08,0,0,0,342.3,121Z" transform="translate(-33.93 -87.51)"/><path d="M354.83,111a3.15,3.15,0,0,1-2.38-1,3.37,3.37,0,0,1-.93-2.39,3.31,3.31,0,0,1,.93-2.38,3.17,3.17,0,0,1,2.38-1,3.09,3.09,0,0,1,2.34,1,3.32,3.32,0,0,1,.94,2.38,3.38,3.38,0,0,1-.94,2.39A3.07,3.07,0,0,1,354.83,111Zm-3.2,19.62V113h6.3v17.6Z" transform="translate(-33.93 -87.51)"/><path d="M361.56,130.59V113h6.3v17.6Zm11.41,0v-10a2.39,2.39,0,0,0-2.51-2.56,3,3,0,0,0-1.36.31,2.08,2.08,0,0,0-.91.9,2.83,2.83,0,0,0-.33,1.39l-2.41-1.16a7.09,7.09,0,0,1,.92-3.67,6.08,6.08,0,0,1,2.57-2.37,8.09,8.09,0,0,1,3.71-.83,6.51,6.51,0,0,1,5.76,3.24,6.39,6.39,0,0,1,.86,3.31v11.41Z" transform="translate(-33.93 -87.51)"/><path d="M390.07,138.58a12.7,12.7,0,0,1-5.18-1,8.5,8.5,0,0,1-3.53-2.79l3.82-3.74a6.52,6.52,0,0,0,2,1.53,5.8,5.8,0,0,0,2.65.56,4.34,4.34,0,0,0,2.95-.94,3.29,3.29,0,0,0,1.08-2.63V125l1-3.81-.9-3.78V113h6.16v16.38a8.63,8.63,0,0,1-4.9,8.08A11.3,11.3,0,0,1,390.07,138.58Zm-.28-8.64a8.31,8.31,0,0,1-4.36-1.13,7.93,7.93,0,0,1-3-3.11,9.21,9.21,0,0,1-1.06-4.43,9.11,9.11,0,0,1,1.06-4.39,8,8,0,0,1,3-3.12,8.34,8.34,0,0,1,4.32-1.13,7.7,7.7,0,0,1,3.06.59,6,6,0,0,1,2.25,1.66,5,5,0,0,1,1.1,2.46v7.89a5,5,0,0,1-1.1,2.46,6,6,0,0,1-2.25,1.66A7.43,7.43,0,0,1,389.79,129.94Zm1.15-5.43a3.21,3.21,0,0,0,1.73-.45,3.31,3.31,0,0,0,1.13-1.19,3.18,3.18,0,0,0,.41-1.6,3.35,3.35,0,0,0-.39-1.62,3.12,3.12,0,0,0-1.14-1.17A3.21,3.21,0,0,0,391,118a3.12,3.12,0,0,0-2.82,1.64,3.1,3.1,0,0,0-.42,1.56,3.47,3.47,0,0,0,.4,1.59,3.15,3.15,0,0,0,1.13,1.22A3.1,3.1,0,0,0,390.94,124.51Z" transform="translate(-33.93 -87.51)"/><path d="M423.19,131.06a14.34,14.34,0,0,1-5.43-1,13.36,13.36,0,0,1-4.34-2.81,12.61,12.61,0,0,1-2.88-4.23,13.87,13.87,0,0,1,0-10.44,12.86,12.86,0,0,1,2.85-4.21,12.56,12.56,0,0,1,4.32-2.79,15.71,15.71,0,0,1,10.87,0,12.94,12.94,0,0,1,4.34,2.79,12.76,12.76,0,0,1,2.86,4.23,13.45,13.45,0,0,1,1,5.22,13.22,13.22,0,0,1-3.87,9.45,12.72,12.72,0,0,1-4.31,2.81A14.41,14.41,0,0,1,423.19,131.06Zm-.07-5.76a7.2,7.2,0,0,0,3.75-.94,6.3,6.3,0,0,0,2.44-2.62,9.36,9.36,0,0,0,.36-7,6.67,6.67,0,0,0-1.44-2.36,6.17,6.17,0,0,0-2.23-1.51,7.58,7.58,0,0,0-2.88-.52,7.32,7.32,0,0,0-3.71.92,6.34,6.34,0,0,0-2.46,2.59,8.26,8.26,0,0,0-.88,3.91,9.44,9.44,0,0,0,.48,3.11,6.77,6.77,0,0,0,1.42,2.38,6.33,6.33,0,0,0,2.25,1.51A7.79,7.79,0,0,0,423.12,125.3Zm11.27,7.49-12.13-12.17,3.6-3.6L438,129.19Z" transform="translate(-33.93 -87.51)"/><path d="M447.89,131a9.63,9.63,0,0,1-4.45-1,7.46,7.46,0,0,1-4.12-6.82V113h6.3v10.19a2.67,2.67,0,0,0,.27,1.24,2,2,0,0,0,.79.83,2.32,2.32,0,0,0,1.17.3,2.1,2.1,0,0,0,1.62-.65,2.38,2.38,0,0,0,.61-1.72V113h6.3v10.19a7.52,7.52,0,0,1-1.08,4.06,7.41,7.41,0,0,1-3,2.76A9.55,9.55,0,0,1,447.89,131Z" transform="translate(-33.93 -87.51)"/><path d="M466.93,131a8,8,0,0,1-4.37-1.19,8.38,8.38,0,0,1-3-3.25,10.68,10.68,0,0,1,0-9.44,8.28,8.28,0,0,1,3-3.25,7.93,7.93,0,0,1,4.32-1.19,7.77,7.77,0,0,1,3.06.59,6,6,0,0,1,2.25,1.66,4.79,4.79,0,0,1,1.06,2.46v8.86a5,5,0,0,1-1.1,2.48,6,6,0,0,1-2.25,1.68A7.53,7.53,0,0,1,466.93,131Zm1.33-5.58a3.2,3.2,0,0,0,2.49-1,3.66,3.66,0,0,0,.93-2.59,3.79,3.79,0,0,0-.43-1.82,3.24,3.24,0,0,0-1.19-1.27,3.2,3.2,0,0,0-1.76-.47,3.36,3.36,0,0,0-3,1.74,3.69,3.69,0,0,0-.45,1.82,3.87,3.87,0,0,0,.44,1.86,3.11,3.11,0,0,0,1.22,1.27A3.34,3.34,0,0,0,468.26,125.37Zm3.21,5.22v-4.75l.9-4.25-.9-4.28V113h6.19v17.6Z" transform="translate(-33.93 -87.51)"/><path d="M481.26,130.59V104.35h6.3v26.24Z" transform="translate(-33.93 -87.51)"/><path d="M494.33,111a3.15,3.15,0,0,1-2.38-1,3.37,3.37,0,0,1-.93-2.39,3.31,3.31,0,0,1,.93-2.38,3.17,3.17,0,0,1,2.38-1,3.12,3.12,0,0,1,2.34,1,3.31,3.31,0,0,1,.93,2.38,3.37,3.37,0,0,1-.93,2.39A3.11,3.11,0,0,1,494.33,111Zm-3.21,19.62V113h6.3v17.6Z" transform="translate(-33.93 -87.51)"/><path d="M499.62,118.21V113h14v5.22Zm3.85,12.38V105.72h6.3v24.87Z" transform="translate(-33.93 -87.51)"/><path d="M521.11,130.63,514.06,113h6.69l4.36,14.51h-2.67L526.8,113h6.7l-7.24,17.64Zm-4.17,7.45,5.18-11.48,4.14,4-3,7.45Z" transform="translate(-33.93 -87.51)"/><path d="M532.81,135l2.74-5.07,1.83-.51a3.68,3.68,0,0,1-.73,1,1.37,1.37,0,0,1-.92.38,2.85,2.85,0,0,1-2.05-.94,3.2,3.2,0,0,1-.94-2.38,3.7,3.7,0,0,1,1-2.64,3.41,3.41,0,0,1,2.61-1.1,3.45,3.45,0,0,1,2.52,1.08,3.62,3.62,0,0,1,1.08,2.66,5.34,5.34,0,0,1-.24,1.48,11,11,0,0,1-1,2.16l-3,5.54Z" transform="translate(-33.93 -87.51)"/><path d="M151.47,148.65V147.1h10.17v1.55Zm4.23,10.94V147.46h1.71v12.13Z" transform="translate(-33.93 -87.51)"/><path d="M165.06,159.59V151h1.62v8.55Zm1.62-4.86-.61-.29a4.17,4.17,0,0,1,.75-2.61,2.62,2.62,0,0,1,2.18-1,2.94,2.94,0,0,1,1.17.23,2.76,2.76,0,0,1,1,.74l-1.06,1.1a1.62,1.62,0,0,0-.59-.41,2.21,2.21,0,0,0-2.24.45A2.4,2.4,0,0,0,166.68,154.73Z" transform="translate(-33.93 -87.51)"/><path d="M179.19,159.77a4,4,0,0,1-2.13-.58,4.2,4.2,0,0,1-1.5-1.6,4.94,4.94,0,0,1,0-4.53,4.28,4.28,0,0,1,1.5-1.6,3.89,3.89,0,0,1,2.13-.6,3.66,3.66,0,0,1,1.74.41,3.29,3.29,0,0,1,1.23,1.11,3.38,3.38,0,0,1,.52,1.65v2.57a3.44,3.44,0,0,1-.51,1.64,3.22,3.22,0,0,1-1.24,1.13A3.66,3.66,0,0,1,179.19,159.77Zm.27-1.53a2.47,2.47,0,0,0,1.94-.82,3,3,0,0,0,.74-2.09,3.25,3.25,0,0,0-.34-1.53,2.52,2.52,0,0,0-1-1,2.6,2.6,0,0,0-1.41-.37,2.7,2.7,0,0,0-1.43.38,2.67,2.67,0,0,0-1,1,3.09,3.09,0,0,0-.35,1.51,3.13,3.13,0,0,0,.35,1.52,2.56,2.56,0,0,0,1,1A2.67,2.67,0,0,0,179.46,158.24Zm2.57,1.35v-2.3l.31-2.09-.31-2.07V151h1.64v8.55Z" transform="translate(-33.93 -87.51)"/><path d="M193.23,159.77a3.92,3.92,0,0,1-2.11-.58,4.16,4.16,0,0,1-1.48-1.6,4.94,4.94,0,0,1,0-4.53,4.23,4.23,0,0,1,1.48-1.6,3.85,3.85,0,0,1,2.11-.6,3.66,3.66,0,0,1,1.74.41,3.21,3.21,0,0,1,1.79,2.76v2.57a3.26,3.26,0,0,1-.53,1.64,3.22,3.22,0,0,1-1.24,1.13A3.71,3.71,0,0,1,193.23,159.77Zm.27-1.53a2.58,2.58,0,0,0,1.42-.38,2.49,2.49,0,0,0,1-1,3.19,3.19,0,0,0,.35-1.5,3.26,3.26,0,0,0-.35-1.53,2.55,2.55,0,0,0-1-1,2.67,2.67,0,0,0-1.42-.38,2.64,2.64,0,0,0-1.42.37,2.67,2.67,0,0,0-1,1,3.19,3.19,0,0,0-.35,1.52,3.32,3.32,0,0,0,.35,1.53,2.56,2.56,0,0,0,1,1A2.65,2.65,0,0,0,193.5,158.24Zm4.25,1.35h-1.64v-2.3l.3-2.09-.3-2.07v-6.39h1.64Z" transform="translate(-33.93 -87.51)"/><path d="M204.53,149.33a1,1,0,0,1-.74-.29,1,1,0,0,1-.28-.75,1,1,0,0,1,.28-.73,1,1,0,0,1,.74-.3,1,1,0,0,1,.74.3,1,1,0,0,1,.29.73,1.05,1.05,0,0,1-.29.75A1,1,0,0,1,204.53,149.33Zm-.83,10.26V151h1.64v8.55Z" transform="translate(-33.93 -87.51)"/><path d="M211.34,159.59V151H213v8.55Zm6,0v-5a2.21,2.21,0,0,0-.61-1.61,2.06,2.06,0,0,0-1.57-.63,2.28,2.28,0,0,0-1.15.29,2.17,2.17,0,0,0-.8.79,2.32,2.32,0,0,0-.28,1.16l-.67-.38a3.39,3.39,0,0,1,.43-1.73,3.24,3.24,0,0,1,1.21-1.2,3.49,3.49,0,0,1,1.74-.44,3,3,0,0,1,1.72.49,3.43,3.43,0,0,1,1.18,1.27,3.34,3.34,0,0,1,.43,1.66v5.31Z" transform="translate(-33.93 -87.51)"/><path d="M228.35,159.45a4,4,0,0,1-3.57-2.1,4.77,4.77,0,0,1,0-4.39,4.15,4.15,0,0,1,1.47-1.53,3.93,3.93,0,0,1,2.09-.57,3.84,3.84,0,0,1,1.79.4,3,3,0,0,1,1.23,1.11,3.42,3.42,0,0,1,.51,1.66v2.27a3.31,3.31,0,0,1-.52,1.64,3,3,0,0,1-1.23,1.11A3.74,3.74,0,0,1,228.35,159.45Zm0,3.9a5.37,5.37,0,0,1-2.34-.48,4.22,4.22,0,0,1-1.64-1.37l1.06-1.06a3.67,3.67,0,0,0,1.24,1,3.92,3.92,0,0,0,1.71.35,3,3,0,0,0,2.07-.7,2.36,2.36,0,0,0,.78-1.86v-2.12l.28-1.93-.28-1.91V151h1.62v8.21a4,4,0,0,1-.57,2.15,3.86,3.86,0,0,1-1.58,1.44A5.21,5.21,0,0,1,228.35,163.35Zm.3-5.43a2.88,2.88,0,0,0,1.41-.34,2.39,2.39,0,0,0,.92-1,2.91,2.91,0,0,0,.34-1.45,3,3,0,0,0-.34-1.45,2.48,2.48,0,0,0-.93-1,2.77,2.77,0,0,0-1.4-.35,2.85,2.85,0,0,0-1.42.35,2.55,2.55,0,0,0-1,1,3.14,3.14,0,0,0,0,2.88,2.54,2.54,0,0,0,1,1A2.83,2.83,0,0,0,228.65,157.92Z" transform="translate(-33.93 -87.51)"/><path d="M252.05,159.77a6.08,6.08,0,0,1-2.44-.49,6.17,6.17,0,0,1-2-1.38,6.46,6.46,0,0,1-1.82-4.57,6.49,6.49,0,0,1,.48-2.51,6.64,6.64,0,0,1,1.35-2,6.14,6.14,0,0,1,2-1.36,6.38,6.38,0,0,1,2.53-.49,6.46,6.46,0,0,1,2.75.58,5.59,5.59,0,0,1,2.11,1.65l-1.17,1.17A3.88,3.88,0,0,0,254.3,149a4.84,4.84,0,0,0-2.12-.46,4.7,4.7,0,0,0-2.42.61,4.23,4.23,0,0,0-1.64,1.69,5.15,5.15,0,0,0-.59,2.49,5.05,5.05,0,0,0,.6,2.5,4.41,4.41,0,0,0,1.6,1.69,4.29,4.29,0,0,0,2.29.61,4.84,4.84,0,0,0,2.29-.5,3.49,3.49,0,0,0,1.48-1.49,5.25,5.25,0,0,0,.53-2.4l1,.76h-5.4v-1.57h6.12v.25a7.83,7.83,0,0,1-.76,3.65,5.09,5.09,0,0,1-2.13,2.2A6.31,6.31,0,0,1,252.05,159.77Z" transform="translate(-33.93 -87.51)"/><path d="M263.63,159.59V146.74h1.62v12.85Z" transform="translate(-33.93 -87.51)"/><path d="M275.11,159.77a4.43,4.43,0,0,1-4.45-4.48,4.24,4.24,0,0,1,.6-2.24,4.36,4.36,0,0,1,1.6-1.59,4.3,4.3,0,0,1,2.25-.6A4.44,4.44,0,0,1,279,153a4.39,4.39,0,0,1,.59,2.25,4.4,4.4,0,0,1-4.48,4.48Zm0-1.56a2.81,2.81,0,0,0,1.46-.38,2.68,2.68,0,0,0,1-1,3.08,3.08,0,0,0,.36-1.5,3,3,0,0,0-.37-1.48,2.7,2.7,0,0,0-2.44-1.38,2.71,2.71,0,0,0-1.42.37,2.6,2.6,0,0,0-1,1,3,3,0,0,0-.36,1.48,3.08,3.08,0,0,0,.36,1.5,2.68,2.68,0,0,0,1,1A2.72,2.72,0,0,0,275.11,158.21Z" transform="translate(-33.93 -87.51)"/><path d="M285,159.59V146.74h1.62v6.39l-.31,2.07.31,2.09v2.3Zm4.5.18a3.73,3.73,0,0,1-1.75-.4,3.28,3.28,0,0,1-1.26-1.13,3.35,3.35,0,0,1-.52-1.64V154a3.21,3.21,0,0,1,1.79-2.76,3.75,3.75,0,0,1,1.74-.41,3.88,3.88,0,0,1,2.12.6,4.15,4.15,0,0,1,1.48,1.6,5,5,0,0,1,0,4.53,4.08,4.08,0,0,1-1.48,1.6A4,4,0,0,1,289.49,159.77Zm-.27-1.53a2.58,2.58,0,0,0,1.42-.38,2.67,2.67,0,0,0,1-1,3.24,3.24,0,0,0,.35-1.52,3.2,3.2,0,0,0-.35-1.51,2.75,2.75,0,0,0-1-1,2.67,2.67,0,0,0-1.42-.38,2.6,2.6,0,0,0-1.4.38,2.65,2.65,0,0,0-1,1,3.25,3.25,0,0,0-.34,1.53,3.31,3.31,0,0,0,.33,1.5,2.51,2.51,0,0,0,1,1A2.57,2.57,0,0,0,289.22,158.24Z" transform="translate(-33.93 -87.51)"/><path d="M302.7,159.77a4,4,0,0,1-2.13-.58,4.11,4.11,0,0,1-1.49-1.6,4.94,4.94,0,0,1,0-4.53,4.17,4.17,0,0,1,1.49-1.6,3.89,3.89,0,0,1,2.13-.6,3.66,3.66,0,0,1,1.74.41,3.29,3.29,0,0,1,1.23,1.11,3.39,3.39,0,0,1,.53,1.65v2.57a3.35,3.35,0,0,1-.52,1.64,3.19,3.19,0,0,1-1.23,1.13A3.73,3.73,0,0,1,302.7,159.77Zm.27-1.53a2.49,2.49,0,0,0,1.95-.82,3,3,0,0,0,.74-2.09,3.26,3.26,0,0,0-.35-1.53,2.57,2.57,0,0,0-.94-1,2.6,2.6,0,0,0-1.41-.37,2.64,2.64,0,0,0-2.41,1.41,3.2,3.2,0,0,0-.35,1.51,3.24,3.24,0,0,0,.35,1.52,2.63,2.63,0,0,0,1,1A2.67,2.67,0,0,0,303,158.24Zm2.58,1.35v-2.3l.3-2.09-.3-2.07V151h1.63v8.55Z" transform="translate(-33.93 -87.51)"/><path d="M313.14,159.59V146.74h1.62v12.85Z" transform="translate(-33.93 -87.51)"/><path d="M320.74,159.59V146.74h1.62v12.85Z" transform="translate(-33.93 -87.51)"/><path d="M331.14,159.66,327.43,151h1.8l2.76,6.75h-.58l2.9-6.75h1.8l-4,8.62Zm-2.45,3.51L331.2,158l.91,1.65-1.62,3.51Z" transform="translate(-33.93 -87.51)"/><path d="M341.38,159.77a1.07,1.07,0,0,1-.84-.35,1.17,1.17,0,0,1-.33-.84,1.13,1.13,0,0,1,.33-.83,1.09,1.09,0,0,1,.84-.34,1.11,1.11,0,0,1,.84.34,1.13,1.13,0,0,1,.33.83,1.17,1.17,0,0,1-.33.84A1.08,1.08,0,0,1,341.38,159.77Z" transform="translate(-33.93 -87.51)"/><path d="M63.32,114H85.94L66.86,150.57l-3.77,0,17.28-33.11H63.32Z" transform="translate(-33.93 -87.51)" fill="#1a1a1a" stroke="#1a1a1a" stroke-miterlimit="10" stroke-width="3"/><path d="M121.87,128.88V134H53.52v-3.41h65.07c0-.66,0-1.18-.09-1.69s-.12-1.29-.21-1.92c-.15-1.18-.35-2.33-.61-3.47s-.57-2.34-.93-3.47-.81-2.34-1.29-3.47c-.14-.33-.29-.66-.43-1-.39-.85-.81-1.68-1.25-2.49-.65-1.2-1.37-2.35-2.13-3.47l-.09-.13a40.21,40.21,0,0,0-2.59-3.34c-.29-.34-.58-.67-.88-1-.79-.86-1.62-1.68-2.49-2.47-.32-.3-.65-.59-1-.87a40.74,40.74,0,0,0-3.4-2.6l-.07,0A39.61,39.61,0,0,0,97.68,97c-.87-.47-1.75-.91-2.66-1.31l-.81-.36c-1.13-.47-2.29-.9-3.47-1.27s-2.3-.67-3.47-.93-2.3-.44-3.47-.59-2.3-.24-3.47-.29c-.53,0-1.07,0-1.6,0s-1.25,0-1.87,0c-1.17.06-2.33.16-3.47.31s-2.33.37-3.47.63-2.34.58-3.47,1S64.11,95,63,95.48l-.55.24c-1,.44-2,.93-2.92,1.46a29.31,29.31,0,0,0-3.27,2H56v.09s-2.35,1.74-3.45,2.7l-.72.64c-1,.87-1.88,1.8-2.75,2.76-.21.24-.42.47-.62.71a37.6,37.6,0,0,0-2.67,3.47l-.18.26c-.7,1-1.35,2.1-2,3.21s-1.05,2-1.51,3.09c-.06.12-.11.25-.16.38A35.19,35.19,0,0,0,40.71,120c-.37,1.13-.68,2.29-.94,3.47s-.46,2.29-.61,3.47-.25,2.3-.3,3.47c0,.57,0,1.15,0,1.73s0,1.16,0,1.74c0,1.17.15,2.32.3,3.47s.36,2.33.61,3.47.57,2.33.94,3.47A35.19,35.19,0,0,0,42,147.77c0,.12.1.25.16.38.46,1,1,2.08,1.51,3.09s1.26,2.17,2,3.21l.18.26a40.49,40.49,0,0,0,2.67,3.47l.62.7c.87,1,1.79,1.89,2.75,2.77l.72.64A40.44,40.44,0,0,0,56,165v.1h.22a30.85,30.85,0,0,0,3.27,2c1,.52,1.92,1,2.92,1.46l.55.24c1.13.48,2.29.92,3.47,1.3s2.29.68,3.47,1,2.29.46,3.47.62,2.3.26,3.52.31v.11h3.41v0c1.16-.05,2.32-.15,3.46-.29s2.32-.35,3.46-.59,2.33-.57,3.47-.93,2.33-.79,3.46-1.27l.81-.35c.9-.41,1.79-.84,2.65-1.31a38,38,0,0,0,3.46-2.11.18.18,0,0,0,.07-.05,40.63,40.63,0,0,0,3.4-2.59c.33-.28.66-.58,1-.87.86-.79,1.69-1.61,2.48-2.47.3-.32.6-.66.89-1,.91-1.07,1.77-2.18,2.57-3.33l.09-.14a38.21,38.21,0,0,0,2.13-3.46c.44-.81.86-1.64,1.25-2.49.14-.32.29-.64.43-1,.48-1.13.91-2.28,1.28-3.46h3.62c-.34,1.17-.73,2.33-1.16,3.46-.23.58-.46,1.15-.71,1.72s-.53,1.17-.81,1.74c-.58,1.19-1.22,2.34-1.9,3.46-.24.41-.5.8-.75,1.2-.51.77-1,1.53-1.6,2.27s-1.22,1.56-1.87,2.31c-.33.39-.67.77-1,1.15-.78.84-1.6,1.65-2.44,2.43-.38.35-.77.7-1.17,1-.74.64-1.51,1.25-2.29,1.84s-1.55,1.11-2.35,1.63c-.36.24-.74.47-1.12.7-1.12.68-2.27,1.31-3.46,1.88-.63.31-1.27.6-1.92.88s-1,.43-1.54.62c-1.13.44-2.29.82-3.46,1.16s-2.3.61-3.47.84-2.29.41-3.46.55-2.3.22-3.46.26c-.53,0-1.07,0-1.6,0s-1.25,0-1.87,0c-1.16,0-2.32-.14-3.46-.28s-2.32-.34-3.46-.57-2.33-.53-3.47-.87-2.33-.74-3.46-1.18l-1.27-.52c-.74-.32-1.47-.65-2.19-1-1.19-.58-2.34-1.23-3.47-1.92l-.85-.53q-1.34-.87-2.61-1.83c-.69-.53-1.37-1.07-2-1.64-.48-.41-1-.84-1.43-1.28-.75-.7-1.47-1.43-2.17-2.18-.44-.48-.87-1-1.29-1.46-.56-.65-1.09-1.32-1.61-2-.65-.87-1.27-1.77-1.86-2.69l-.48-.78c-.69-1.12-1.32-2.27-1.9-3.46q-.59-1.17-1.08-2.37c-.15-.36-.3-.73-.44-1.09-.44-1.13-.83-2.29-1.17-3.46s-.62-2.3-.85-3.47-.42-2.29-.56-3.46-.23-2.3-.28-3.46q0-.87,0-1.74c0-.57,0-1.15,0-1.73,0-1.16.14-2.32.28-3.46s.33-2.32.56-3.46.52-2.33.85-3.47.73-2.33,1.17-3.46c.14-.37.29-.73.44-1.09.33-.8.69-1.6,1.08-2.37.58-1.19,1.21-2.34,1.9-3.47l.48-.77c.59-.92,1.21-1.82,1.86-2.69.52-.68,1.05-1.35,1.61-2,.42-.5.85-1,1.29-1.46.7-.75,1.42-1.48,2.17-2.18.47-.44,1-.87,1.43-1.28.66-.57,1.34-1.11,2-1.64q1.28-1,2.61-1.83l.85-.54c1.13-.69,2.28-1.33,3.47-1.91.72-.36,1.45-.69,2.19-1L63,92c1.13-.44,2.29-.84,3.46-1.18s2.29-.63,3.47-.87,2.29-.42,3.46-.57,2.3-.23,3.46-.28c.62,0,1.24,0,1.87,0s1.07,0,1.6,0c1.16,0,2.32.13,3.46.26s2.32.32,3.46.55,2.33.51,3.47.84,2.33.72,3.46,1.15c.52.2,1,.41,1.54.63s1.29.57,1.92.88c1.19.57,2.34,1.2,3.46,1.88.38.23.76.46,1.12.7.8.52,1.59,1.06,2.35,1.63s1.55,1.2,2.29,1.84c.4.33.79.68,1.17,1,.84.78,1.66,1.59,2.44,2.43.35.37.69.76,1,1.14.65.75,1.27,1.53,1.87,2.32s1.09,1.5,1.6,2.27c.25.4.51.79.75,1.19.68,1.13,1.32,2.28,1.9,3.47q.42.85.81,1.74c.25.57.48,1.14.71,1.72.43,1.13.82,2.29,1.16,3.46s.62,2.29.86,3.47.42,2.29.56,3.46C121.77,127.69,121.83,128.29,121.87,128.88Z" transform="translate(-33.93 -87.51)" stroke-miterlimit="10" stroke-width="3" fill-rule="evenodd" fill="url(#linear-gradient)" stroke="url(#linear-gradient-2)"/><path d="M97.14,150.57H74.52L93.6,114l3.77,0L80.09,147.17h17Z" transform="translate(-33.93 -87.51)" fill="#1a1a1a" stroke="#1a1a1a" stroke-miterlimit="10" stroke-width="3"/></svg>